<?xml version="1.0" encoding="UTF-8" standalone="no"?>
<!DOCTYPE svg PUBLIC "-//W3C//DTD SVG 1.1//EN" "http://www.w3.org/Graphics/SVG/1.1/DTD/svg11.dtd">
<!-- Generated by graphviz version 2.40.1 (20161225.0304)
 -->
<!-- Title: %0 Pages: 1 -->
<svg xmlns="http://www.w3.org/2000/svg" xmlns:xlink="http://www.w3.org/1999/xlink" width="1670pt" height="367pt" viewBox="0.00 0.00 1670.00 366.62">
  <g id="graph0" class="graph" transform="scale(1 1) rotate(0) translate(4 362.6193)">
    <title>%0</title>
    <polygon fill="#ffffff" stroke="transparent" points="-4,4 -4,-362.6193 1666,-362.6193 1666,4 -4,4"/>
    <g id="clust1" class="cluster">
      <title>cluster1</title>
      <polygon fill="#ffffff" stroke="#000000" points="8,-264.5645 8,-350.6193 446,-350.6193 446,-264.5645 8,-264.5645"/>
      <text text-anchor="middle" x="397.5638" y="-272.7645" font-family="Times,serif" font-size="14.00" fill="#000000">Cond cond [2]</text>
    </g>
    <g id="clust2" class="cluster">
      <title>cluster2</title>
      <polygon fill="#ffffff" stroke="#000000" points="1234,-264.5645 1234,-350.6193 1654,-350.6193 1654,-264.5645 1234,-264.5645"/>
      <text text-anchor="middle" x="1612.5638" y="-272.7645" font-family="Times,serif" font-size="14.00" fill="#000000">Cov cov [3]</text>
    </g>
    <g id="clust3" class="cluster">
      <title>cluster3</title>
      <polygon fill="#ffffff" stroke="#000000" points="454,-8 454,-350.6193 1226,-350.6193 1226,-8 454,-8"/>
      <text text-anchor="middle" x="1163.183" y="-16.2" font-family="Times,serif" font-size="14.00" fill="#000000">Observation i [200]</text>
    </g>
    <!-- 5&#45;&gt;3 -->
    <g id="edge1" class="edge">
      <title>5-&gt;3</title>
      <path fill="none" stroke="#333333" stroke-dasharray="5,2" d="M369.2798,-298.6569C391.4136,-286.1237 421.3338,-271.4314 450,-264.5645 490.9616,-254.7523 787.0045,-259.8071 829,-256.5645 849.7521,-254.9622 871.6502,-252.6586 893.0306,-250.0681"/>
      <polygon fill="#333333" stroke="#333333" points="893.4117,-251.7846 898.1619,-249.4398 892.9863,-248.3106 893.4117,-251.7846"/>
    </g>
    <!-- 6&#45;&gt;4 -->
    <g id="edge2" class="edge">
      <title>6-&gt;4</title>
      <path fill="none" stroke="#333333" stroke-dasharray="5,2" d="M148.59,-298.3998C169.2186,-286.2697 196.6573,-272.0941 223,-264.5645 267.45,-251.8593 370.6384,-243.2388 463.3622,-237.7766"/>
      <polygon fill="#333333" stroke="#333333" points="463.72,-239.5088 468.6095,-237.4702 463.5159,-236.0148 463.72,-239.5088"/>
    </g>
    <!-- 7&#45;&gt;3 -->
    <g id="edge3" class="edge">
      <title>7-&gt;3</title>
      <path fill="none" stroke="#333333" stroke-dasharray="5,2" d="M1514.745,-298.4052C1494.316,-286.277 1467.1319,-272.1015 1441,-264.5645 1398.7621,-252.3822 1302.7554,-243.9404 1213.9307,-238.4438"/>
      <polygon fill="#333333" stroke="#333333" points="1213.9988,-236.6948 1208.901,-238.1352 1213.7844,-240.1882 1213.9988,-236.6948"/>
    </g>
    <!-- 8&#45;&gt;4 -->
    <g id="edge4" class="edge">
      <title>8-&gt;4</title>
      <path fill="none" stroke="#333333" stroke-dasharray="5,2" d="M1305.3091,-298.6491C1284.7942,-286.1129 1256.9669,-271.4202 1230,-264.5645 1186.8094,-253.5844 873.4207,-260.1402 829,-256.5645 809.3864,-254.9857 788.6982,-252.6954 768.5028,-250.1114"/>
      <polygon fill="#333333" stroke="#333333" points="768.5633,-248.3547 763.38,-249.4483 768.114,-251.8257 768.5633,-248.3547"/>
    </g>
    <!-- 2&#45;&gt;1 -->
    <g id="edge5" class="edge">
      <title>2-&gt;1</title>
      <path fill="none" stroke="#333333" d="M844.9347,-122.2639C857.1483,-111.7064 871.7547,-99.0804 884.2998,-88.2363"/>
      <polygon fill="#333333" stroke="#333333" points="885.4837,-89.5261 888.122,-84.9323 883.1948,-86.8782 885.4837,-89.5261"/>
    </g>
    <!-- 3&#45;&gt;2 -->
    <g id="edge6" class="edge">
      <title>3-&gt;2</title>
      <path fill="none" stroke="#333333" d="M966.1414,-204.7039C937.3534,-192.9607 903.3541,-179.0918 875.2936,-167.6454"/>
      <polygon fill="#333333" stroke="#333333" points="875.776,-165.9523 870.4854,-165.6841 874.454,-169.193 875.776,-165.9523"/>
    </g>
    <!-- 4&#45;&gt;2 -->
    <g id="edge7" class="edge">
      <title>4-&gt;2</title>
      <path fill="none" stroke="#333333" d="M694.4059,-204.3578C718.2149,-192.9543 746.0928,-179.6019 769.4346,-168.4221"/>
      <polygon fill="#333333" stroke="#333333" points="770.2865,-169.9545 774.04,-166.2163 768.7745,-166.7979 770.2865,-169.9545"/>
    </g>
    <!-- 9&#45;&gt;1 -->
    <g id="edge8" class="edge">
      <title>9-&gt;1</title>
      <path fill="none" stroke="#333333" d="M986.6034,-127.0512C973.5734,-115.7879 956.4758,-101.0085 942.0393,-88.5294"/>
      <polygon fill="#333333" stroke="#333333" points="942.9708,-87.0214 938.0437,-85.0755 940.6819,-89.6692 942.9708,-87.0214"/>
    </g>
    <!-- 10&#45;&gt;3 -->
    <g id="edge9" class="edge">
      <title>10-&gt;3</title>
      <path fill="none" stroke="#333333" d="M968.8669,-300.0058C978.6161,-288.4536 991.0866,-273.677 1002.0601,-260.6741"/>
      <polygon fill="#333333" stroke="#333333" points="1003.5255,-261.6511 1005.4129,-256.7013 1000.8507,-259.3937 1003.5255,-261.6511"/>
    </g>
    <!-- 10&#45;&gt;4 -->
    <g id="edge10" class="edge">
      <title>10-&gt;4</title>
      <path fill="none" stroke="#333333" d="M919.5977,-310.6093C874.6406,-297.5913 791.6851,-273.5703 727.9443,-255.1132"/>
      <polygon fill="#333333" stroke="#333333" points="728.2922,-253.3921 723.0027,-253.6822 727.3187,-256.754 728.2922,-253.3921"/>
    </g>
    <!-- 11&#45;&gt;3 -->
    <g id="edge11" class="edge">
      <title>11-&gt;3</title>
      <path fill="none" stroke="#333333" d="M746.0937,-311.2215C783.7176,-300.265 850.1006,-280.9621 907,-264.5645 917.3781,-261.5737 928.2596,-258.4468 939.0632,-255.348"/>
      <polygon fill="#333333" stroke="#333333" points="939.6955,-256.9873 944.0194,-253.9268 938.7307,-253.6229 939.6955,-256.9873"/>
    </g>
    <!-- 11&#45;&gt;4 -->
    <g id="edge12" class="edge">
      <title>11-&gt;4</title>
      <path fill="none" stroke="#333333" d="M699.3551,-300.0058C689.7341,-288.4536 677.4277,-273.677 666.5986,-260.6741"/>
      <polygon fill="#333333" stroke="#333333" points="667.8344,-259.4234 663.2899,-256.7013 665.145,-261.6633 667.8344,-259.4234"/>
    </g>
    <!-- 5 -->
    <g id="node1" class="node">
      <title>5</title>
      <ellipse fill="#f0f8ff" stroke="#333333" cx="335" cy="-319.9919" rx="102.5525" ry="22.7556"/>
      <text text-anchor="middle" x="335" y="-322.9919" font-family="Helvetica,sans-Serif" font-size="10.00" fill="#000000">Cond Coefficient Alpha</text>
      <text text-anchor="middle" x="335" y="-310.9919" font-family="Helvetica,sans-Serif" font-size="10.00" fill="#000000">c_cond_alpha ~ exponential(1)</text>
    </g>
    <!-- 6 -->
    <g id="node2" class="node">
      <title>6</title>
      <ellipse fill="#f0f8ff" stroke="#333333" cx="115" cy="-319.9919" rx="98.9828" ry="22.7556"/>
      <text text-anchor="middle" x="115" y="-322.9919" font-family="Helvetica,sans-Serif" font-size="10.00" fill="#000000">Cond Coefficient Beta</text>
      <text text-anchor="middle" x="115" y="-310.9919" font-family="Helvetica,sans-Serif" font-size="10.00" fill="#000000">c_cond_beta ~ exponential(1)</text>
    </g>
    <!-- 7 -->
    <g id="node3" class="node">
      <title>7</title>
      <ellipse fill="#f0f8ff" stroke="#333333" cx="1548" cy="-319.9919" rx="98.4007" ry="22.7556"/>
      <text text-anchor="middle" x="1548" y="-322.9919" font-family="Helvetica,sans-Serif" font-size="10.00" fill="#000000">Cov Coefficient Alpha</text>
      <text text-anchor="middle" x="1548" y="-310.9919" font-family="Helvetica,sans-Serif" font-size="10.00" fill="#000000">c_cov_alpha ~ exponential(1)</text>
    </g>
    <!-- 8 -->
    <g id="node4" class="node">
      <title>8</title>
      <ellipse fill="#f0f8ff" stroke="#333333" cx="1337" cy="-319.9919" rx="94.831" ry="22.7556"/>
      <text text-anchor="middle" x="1337" y="-322.9919" font-family="Helvetica,sans-Serif" font-size="10.00" fill="#000000">Cov Coefficient Beta</text>
      <text text-anchor="middle" x="1337" y="-310.9919" font-family="Helvetica,sans-Serif" font-size="10.00" fill="#000000">c_cov_beta ~ exponential(1)</text>
    </g>
    <!-- 1 -->
    <g id="node5" class="node">
      <title>1</title>
      <ellipse fill="#5f9ea0" stroke="#333333" cx="913" cy="-63.4274" rx="79.1285" ry="22.7556"/>
      <text text-anchor="middle" x="913" y="-66.4274" font-family="Helvetica,sans-Serif" font-size="10.00" fill="#000000">Successes</text>
      <text text-anchor="middle" x="913" y="-54.4274" font-family="Helvetica,sans-Serif" font-size="10.00" fill="#000000">s ~ binomial(trials,prob)</text>
    </g>
    <!-- 2 -->
    <g id="node6" class="node">
      <title>2</title>
      <ellipse fill="#f0f8ff" stroke="#333333" cx="819" cy="-144.6823" rx="137.4924" ry="22.7556"/>
      <text text-anchor="middle" x="819" y="-147.6823" font-family="Helvetica,sans-Serif" font-size="10.00" fill="#000000">Probability</text>
      <text text-anchor="middle" x="819" y="-135.6823" font-family="Helvetica,sans-Serif" font-size="10.00" fill="#000000">prob ~ beta(lin_pred_alpha,lin_pred_beta)</text>
    </g>
    <!-- 3 -->
    <g id="node7" class="node">
      <title>3</title>
      <ellipse fill="#f0f8ff" stroke="#333333" cx="1028" cy="-229.9371" rx="186.0844" ry="22.7362"/>
      <ellipse fill="none" stroke="#333333" cx="1028" cy="-229.9371" rx="190.0853" ry="26.7554"/>
      <text text-anchor="middle" x="1028" y="-232.9371" font-family="Helvetica,sans-Serif" font-size="10.00" fill="#000000">Linear Predictor Alpha</text>
      <text text-anchor="middle" x="1028" y="-220.9371" font-family="Helvetica,sans-Serif" font-size="10.00" fill="#000000">lin_pred_alpha = c_cond_alpha[cond] + c_cov_alpha[cov]</text>
    </g>
    <!-- 4 -->
    <g id="node8" class="node">
      <title>4</title>
      <ellipse fill="#f0f8ff" stroke="#333333" cx="641" cy="-229.9371" rx="175.3777" ry="22.7362"/>
      <ellipse fill="none" stroke="#333333" cx="641" cy="-229.9371" rx="179.3763" ry="26.7554"/>
      <text text-anchor="middle" x="641" y="-232.9371" font-family="Helvetica,sans-Serif" font-size="10.00" fill="#000000">Linear Predictor Beta</text>
      <text text-anchor="middle" x="641" y="-220.9371" font-family="Helvetica,sans-Serif" font-size="10.00" fill="#000000">lin_pred_beta = c_cond_beta[cond] + c_cov_beta[cov]</text>
    </g>
    <!-- 9 -->
    <g id="node9" class="node">
      <title>9</title>
      <ellipse fill="#5f9ea0" stroke="#333333" cx="1007" cy="-144.6823" rx="32.5" ry="22.7556"/>
      <text text-anchor="middle" x="1007" y="-147.6823" font-family="Helvetica,sans-Serif" font-size="10.00" fill="#000000">Trials</text>
      <text text-anchor="middle" x="1007" y="-135.6823" font-family="Helvetica,sans-Serif" font-size="10.00" fill="#000000">trials</text>
    </g>
    <!-- 10 -->
    <g id="node10" class="node">
      <title>10</title>
      <ellipse fill="#5f9ea0" stroke="#333333" cx="952" cy="-319.9919" rx="35.5374" ry="22.7556"/>
      <text text-anchor="middle" x="952" y="-322.9919" font-family="Helvetica,sans-Serif" font-size="10.00" fill="#000000">Condition</text>
      <text text-anchor="middle" x="952" y="-310.9919" font-family="Helvetica,sans-Serif" font-size="10.00" fill="#000000">cond</text>
    </g>
    <!-- 11 -->
    <g id="node11" class="node">
      <title>11</title>
      <ellipse fill="#5f9ea0" stroke="#333333" cx="716" cy="-319.9919" rx="32.5" ry="22.7556"/>
      <text text-anchor="middle" x="716" y="-322.9919" font-family="Helvetica,sans-Serif" font-size="10.00" fill="#000000">Cov</text>
      <text text-anchor="middle" x="716" y="-310.9919" font-family="Helvetica,sans-Serif" font-size="10.00" fill="#000000">cov</text>
    </g>
  </g>
</svg>
