<?xml version="1.0" encoding="UTF-8" standalone="no"?>
<!DOCTYPE svg PUBLIC "-//W3C//DTD SVG 1.1//EN" "http://www.w3.org/Graphics/SVG/1.1/DTD/svg11.dtd">
<!-- Generated by graphviz version 2.40.1 (20161225.0304)
 -->
<!-- Title: %0 Pages: 1 -->
<svg xmlns="http://www.w3.org/2000/svg" xmlns:xlink="http://www.w3.org/1999/xlink" width="2419pt" height="367pt" viewBox="0.00 0.00 2419.49 366.62">
  <g id="graph0" class="graph" transform="scale(1 1) rotate(0) translate(4 362.6193)">
    <title>%0</title>
    <polygon fill="#ffffff" stroke="transparent" points="-4,4 -4,-362.6193 2415.4932,-362.6193 2415.4932,4 -4,4"/>
    <g id="clust1" class="cluster">
      <title>cluster2</title>
      <polygon fill="#ffffff" stroke="#000000" points="1537.4932,-264.5645 1537.4932,-350.6193 1975.4932,-350.6193 1975.4932,-264.5645 1537.4932,-264.5645"/>
      <text text-anchor="middle" x="1927.057" y="-272.7645" font-family="Times,serif" font-size="14.00" fill="#000000">Cond cond [2]</text>
    </g>
    <g id="clust2" class="cluster">
      <title>cluster3</title>
      <polygon fill="#ffffff" stroke="#000000" points="1983.4932,-264.5645 1983.4932,-350.6193 2403.4932,-350.6193 2403.4932,-264.5645 1983.4932,-264.5645"/>
      <text text-anchor="middle" x="2362.057" y="-272.7645" font-family="Times,serif" font-size="14.00" fill="#000000">Cov cov [3]</text>
    </g>
    <g id="clust3" class="cluster">
      <title>cluster4</title>
      <polygon fill="#ffffff" stroke="#000000" points="238.4932,-8 238.4932,-350.6193 1296.4932,-350.6193 1296.4932,-8 238.4932,-8"/>
      <text text-anchor="middle" x="1233.6762" y="-16.2" font-family="Times,serif" font-size="14.00" fill="#000000">Observation i [200]</text>
    </g>
    <!-- 9&#45;&gt;3 -->
    <g id="edge8" class="edge">
      <title>9-&gt;3</title>
      <path fill="none" stroke="#333333" d="M153.7061,-298.4849C176.4829,-286.6205 206.3558,-272.6869 234.4932,-264.5645 257.2054,-258.0081 281.3366,-252.6926 305.4899,-248.3832"/>
      <polygon fill="#333333" stroke="#333333" points="306.0215,-250.0668 310.6438,-247.4788 305.4165,-246.6194 306.0215,-250.0668"/>
    </g>
    <!-- 10&#45;&gt;4 -->
    <g id="edge9" class="edge">
      <title>10-&gt;4</title>
      <path fill="none" stroke="#333333" d="M1379.295,-298.5095C1357.1098,-286.6534 1327.9902,-272.72 1300.4932,-264.5645 1278.4401,-258.0237 1254.9809,-252.717 1231.5038,-248.412"/>
      <polygon fill="#333333" stroke="#333333" points="1231.7255,-246.6738 1226.4943,-247.5084 1231.1042,-250.1182 1231.7255,-246.6738"/>
    </g>
    <!-- 5&#45;&gt;3 -->
    <g id="edge1" class="edge">
      <title>5-&gt;3</title>
      <path fill="none" stroke="#333333" stroke-dasharray="5,2" d="M1615.5298,-298.5561C1594.214,-285.9838 1565.3415,-271.2858 1537.4932,-264.5645 1496.4472,-254.6579 819.6552,-258.861 777.4932,-256.5645 748.9272,-255.0086 718.7181,-252.6921 689.2534,-250.0636"/>
      <polygon fill="#333333" stroke="#333333" points="689.2843,-248.3094 684.1476,-249.6044 688.9707,-251.7954 689.2843,-248.3094"/>
    </g>
    <!-- 6&#45;&gt;4 -->
    <g id="edge2" class="edge">
      <title>6-&gt;4</title>
      <path fill="none" stroke="#333333" stroke-dasharray="5,2" d="M1835.4695,-298.3482C1814.8218,-286.0361 1787.1665,-271.6891 1760.4932,-264.5645 1715.1771,-252.4604 1476.8036,-242.6968 1285.9712,-236.6608"/>
      <polygon fill="#333333" stroke="#333333" points="1285.9589,-234.9096 1280.9062,-236.5011 1285.8486,-238.4079 1285.9589,-234.9096"/>
    </g>
    <!-- 7&#45;&gt;3 -->
    <g id="edge3" class="edge">
      <title>7-&gt;3</title>
      <path fill="none" stroke="#333333" stroke-dasharray="5,2" d="M2056.8622,-298.5202C2035.752,-285.9341 2007.1417,-271.234 1979.4932,-264.5645 1947.0346,-256.7347 810.8368,-258.3159 777.4932,-256.5645 748.702,-255.0522 718.2433,-252.7408 688.5605,-250.099"/>
      <polygon fill="#333333" stroke="#333333" points="688.5537,-248.3414 683.4172,-249.6372 688.2406,-251.8274 688.5537,-248.3414"/>
    </g>
    <!-- 8&#45;&gt;4 -->
    <g id="edge4" class="edge">
      <title>8-&gt;4</title>
      <path fill="none" stroke="#333333" stroke-dasharray="5,2" d="M2269.3011,-298.4594C2249.4287,-286.021 2222.594,-271.5013 2196.4932,-264.5645 2111.9551,-242.0967 1607.9423,-234.1756 1293.0301,-231.4053"/>
      <polygon fill="#333333" stroke="#333333" points="1292.9602,-229.6548 1287.9451,-231.3609 1292.9295,-233.1546 1292.9602,-229.6548"/>
    </g>
    <!-- 2&#45;&gt;1 -->
    <g id="edge5" class="edge">
      <title>2-&gt;1</title>
      <path fill="none" stroke="#333333" d="M798.4279,-122.2639C810.6414,-111.7064 825.2478,-99.0804 837.7929,-88.2363"/>
      <polygon fill="#333333" stroke="#333333" points="838.9769,-89.5261 841.6151,-84.9323 836.688,-86.8782 838.9769,-89.5261"/>
    </g>
    <!-- 3&#45;&gt;2 -->
    <g id="edge6" class="edge">
      <title>3-&gt;2</title>
      <path fill="none" stroke="#333333" d="M586.643,-204.4733C624.3005,-192.3583 668.86,-178.0227 704.9066,-166.426"/>
      <polygon fill="#333333" stroke="#333333" points="705.4851,-168.0782 709.7089,-164.881 704.4132,-164.7464 705.4851,-168.0782"/>
    </g>
    <!-- 4&#45;&gt;2 -->
    <g id="edge7" class="edge">
      <title>4-&gt;2</title>
      <path fill="none" stroke="#333333" d="M958.7019,-204.5887C921.0307,-192.4692 876.3873,-178.1067 840.2576,-166.4832"/>
      <polygon fill="#333333" stroke="#333333" points="840.7398,-164.8 835.4441,-164.9346 839.6679,-168.1319 840.7398,-164.8"/>
    </g>
    <!-- 11&#45;&gt;1 -->
    <g id="edge10" class="edge">
      <title>11-&gt;1</title>
      <path fill="none" stroke="#333333" d="M940.0966,-127.0512C927.0666,-115.7879 909.969,-101.0085 895.5325,-88.5294"/>
      <polygon fill="#333333" stroke="#333333" points="896.4639,-87.0214 891.5368,-85.0755 894.1751,-89.6692 896.4639,-87.0214"/>
    </g>
    <!-- 12&#45;&gt;3 -->
    <g id="edge11" class="edge">
      <title>12-&gt;3</title>
      <path fill="none" stroke="#333333" d="M540.842,-298.1922C535.4533,-287.1631 528.8136,-273.5737 522.8811,-261.4317"/>
      <polygon fill="#333333" stroke="#333333" points="524.328,-260.4064 520.5606,-256.6822 521.1833,-261.943 524.328,-260.4064"/>
    </g>
    <!-- 12&#45;&gt;4 -->
    <g id="edge12" class="edge">
      <title>12-&gt;4</title>
      <path fill="none" stroke="#333333" d="M583.9601,-310.6455C626.9812,-298.5472 705.3889,-277.489 773.4932,-264.5645 801.8281,-259.1872 832.0324,-254.3742 861.5119,-250.1699"/>
      <polygon fill="#333333" stroke="#333333" points="861.9153,-251.8803 866.6204,-249.4463 861.4244,-248.4149 861.9153,-251.8803"/>
    </g>
    <!-- 13&#45;&gt;3 -->
    <g id="edge13" class="edge">
      <title>13-&gt;3</title>
      <path fill="none" stroke="#333333" d="M966.2295,-306.0471C940.3559,-292.9995 899.3213,-274.1274 861.4932,-264.5645 825.1347,-255.3732 814.8205,-260.1826 777.4932,-256.5645 752.5501,-254.1468 726.313,-251.5839 700.3971,-249.0407"/>
      <polygon fill="#333333" stroke="#333333" points="700.3657,-247.2793 695.2187,-248.5324 700.0238,-250.7626 700.3657,-247.2793"/>
    </g>
    <!-- 13&#45;&gt;4 -->
    <g id="edge14" class="edge">
      <title>13-&gt;4</title>
      <path fill="none" stroke="#333333" d="M1003.3864,-298.1922C1008.8976,-287.1631 1015.6881,-273.5737 1021.7555,-261.4317"/>
      <polygon fill="#333333" stroke="#333333" points="1023.4591,-261.9372 1024.1287,-256.6822 1020.3283,-260.3727 1023.4591,-261.9372"/>
    </g>
    <!-- 14&#45;&gt;3 -->
    <g id="edge15" class="edge">
      <title>14-&gt;3</title>
      <path fill="none" stroke="#333333" d="M785.195,-310.6093C741.5161,-297.9206 661.8527,-274.7785 599.0152,-256.5242"/>
      <polygon fill="#333333" stroke="#333333" points="599.429,-254.8221 594.1393,-255.1077 598.4525,-258.1832 599.429,-254.8221"/>
    </g>
    <!-- 14&#45;&gt;4 -->
    <g id="edge16" class="edge">
      <title>14-&gt;4</title>
      <path fill="none" stroke="#333333" d="M847.0004,-307.6931C874.1295,-296.4077 915.4808,-279.2622 951.4932,-264.5645 956.965,-262.3313 962.6365,-260.0263 968.3377,-257.7161"/>
      <polygon fill="#333333" stroke="#333333" points="969.1522,-259.2744 973.1299,-255.7757 967.8386,-256.0302 969.1522,-259.2744"/>
    </g>
    <!-- 9 -->
    <g id="node1" class="node">
      <title>9</title>
      <ellipse fill="#f0f8ff" stroke="#333333" cx="115.4932" cy="-319.9919" rx="115.4863" ry="22.7556"/>
      <text text-anchor="middle" x="115.4932" y="-322.9919" font-family="Helvetica,sans-Serif" font-size="10.00" fill="#000000">Cont Coeff Alpha</text>
      <text text-anchor="middle" x="115.4932" y="-310.9919" font-family="Helvetica,sans-Serif" font-size="10.00" fill="#000000">c_cont_cov_alpha ~ exponential(1)</text>
    </g>
    <!-- 10 -->
    <g id="node2" class="node">
      <title>10</title>
      <ellipse fill="#f0f8ff" stroke="#333333" cx="1416.4932" cy="-319.9919" rx="111.9167" ry="22.7556"/>
      <text text-anchor="middle" x="1416.4932" y="-322.9919" font-family="Helvetica,sans-Serif" font-size="10.00" fill="#000000">Cont Coeff Beta</text>
      <text text-anchor="middle" x="1416.4932" y="-310.9919" font-family="Helvetica,sans-Serif" font-size="10.00" fill="#000000">c_cont_cov_beta ~ exponential(1)</text>
    </g>
    <!-- 5 -->
    <g id="node3" class="node">
      <title>5</title>
      <ellipse fill="#f0f8ff" stroke="#333333" cx="1648.4932" cy="-319.9919" rx="102.5525" ry="22.7556"/>
      <text text-anchor="middle" x="1648.4932" y="-322.9919" font-family="Helvetica,sans-Serif" font-size="10.00" fill="#000000">Cond Coefficient Alpha</text>
      <text text-anchor="middle" x="1648.4932" y="-310.9919" font-family="Helvetica,sans-Serif" font-size="10.00" fill="#000000">c_cond_alpha ~ exponential(1)</text>
    </g>
    <!-- 6 -->
    <g id="node4" class="node">
      <title>6</title>
      <ellipse fill="#f0f8ff" stroke="#333333" cx="1868.4932" cy="-319.9919" rx="98.9828" ry="22.7556"/>
      <text text-anchor="middle" x="1868.4932" y="-322.9919" font-family="Helvetica,sans-Serif" font-size="10.00" fill="#000000">Cond Coefficient Beta</text>
      <text text-anchor="middle" x="1868.4932" y="-310.9919" font-family="Helvetica,sans-Serif" font-size="10.00" fill="#000000">c_cond_beta ~ exponential(1)</text>
    </g>
    <!-- 7 -->
    <g id="node5" class="node">
      <title>7</title>
      <ellipse fill="#f0f8ff" stroke="#333333" cx="2089.4932" cy="-319.9919" rx="98.4007" ry="22.7556"/>
      <text text-anchor="middle" x="2089.4932" y="-322.9919" font-family="Helvetica,sans-Serif" font-size="10.00" fill="#000000">Cov Coefficient Alpha</text>
      <text text-anchor="middle" x="2089.4932" y="-310.9919" font-family="Helvetica,sans-Serif" font-size="10.00" fill="#000000">c_cov_alpha ~ exponential(1)</text>
    </g>
    <!-- 8 -->
    <g id="node6" class="node">
      <title>8</title>
      <ellipse fill="#f0f8ff" stroke="#333333" cx="2300.4932" cy="-319.9919" rx="94.831" ry="22.7556"/>
      <text text-anchor="middle" x="2300.4932" y="-322.9919" font-family="Helvetica,sans-Serif" font-size="10.00" fill="#000000">Cov Coefficient Beta</text>
      <text text-anchor="middle" x="2300.4932" y="-310.9919" font-family="Helvetica,sans-Serif" font-size="10.00" fill="#000000">c_cov_beta ~ exponential(1)</text>
    </g>
    <!-- 1 -->
    <g id="node7" class="node">
      <title>1</title>
      <ellipse fill="#5f9ea0" stroke="#333333" cx="866.4932" cy="-63.4274" rx="79.1285" ry="22.7556"/>
      <text text-anchor="middle" x="866.4932" y="-66.4274" font-family="Helvetica,sans-Serif" font-size="10.00" fill="#000000">Successes</text>
      <text text-anchor="middle" x="866.4932" y="-54.4274" font-family="Helvetica,sans-Serif" font-size="10.00" fill="#000000">s ~ binomial(trials,prob)</text>
    </g>
    <!-- 2 -->
    <g id="node8" class="node">
      <title>2</title>
      <ellipse fill="#f0f8ff" stroke="#333333" cx="772.4932" cy="-144.6823" rx="137.4924" ry="22.7556"/>
      <text text-anchor="middle" x="772.4932" y="-147.6823" font-family="Helvetica,sans-Serif" font-size="10.00" fill="#000000">Probability</text>
      <text text-anchor="middle" x="772.4932" y="-135.6823" font-family="Helvetica,sans-Serif" font-size="10.00" fill="#000000">prob ~ beta(lin_pred_alpha,lin_pred_beta)</text>
    </g>
    <!-- 3 -->
    <g id="node9" class="node">
      <title>3</title>
      <ellipse fill="#f0f8ff" stroke="#333333" cx="507.4932" cy="-229.9371" rx="257.2447" ry="22.7362"/>
      <ellipse fill="none" stroke="#333333" cx="507.4932" cy="-229.9371" rx="261.2427" ry="26.7554"/>
      <text text-anchor="middle" x="507.4932" y="-232.9371" font-family="Helvetica,sans-Serif" font-size="10.00" fill="#000000">Linear Predictor Alpha</text>
      <text text-anchor="middle" x="507.4932" y="-220.9371" font-family="Helvetica,sans-Serif" font-size="10.00" fill="#000000">lin_pred_alpha = c_cond_alpha[cond] + c_cov_alpha[cov] + cont_cov * cont_cov</text>
    </g>
    <!-- 4 -->
    <g id="node10" class="node">
      <title>4</title>
      <ellipse fill="#f0f8ff" stroke="#333333" cx="1037.4932" cy="-229.9371" rx="246.5376" ry="22.7362"/>
      <ellipse fill="none" stroke="#333333" cx="1037.4932" cy="-229.9371" rx="250.5339" ry="26.7554"/>
      <text text-anchor="middle" x="1037.4932" y="-232.9371" font-family="Helvetica,sans-Serif" font-size="10.00" fill="#000000">Linear Predictor Beta</text>
      <text text-anchor="middle" x="1037.4932" y="-220.9371" font-family="Helvetica,sans-Serif" font-size="10.00" fill="#000000">lin_pred_beta = c_cond_beta[cond] + c_cov_beta[cov] + cont_cov * cont_cov</text>
    </g>
    <!-- 11 -->
    <g id="node11" class="node">
      <title>11</title>
      <ellipse fill="#5f9ea0" stroke="#333333" cx="960.4932" cy="-144.6823" rx="32.5" ry="22.7556"/>
      <text text-anchor="middle" x="960.4932" y="-147.6823" font-family="Helvetica,sans-Serif" font-size="10.00" fill="#000000">Trials</text>
      <text text-anchor="middle" x="960.4932" y="-135.6823" font-family="Helvetica,sans-Serif" font-size="10.00" fill="#000000">trials</text>
    </g>
    <!-- 12 -->
    <g id="node12" class="node">
      <title>12</title>
      <ellipse fill="#5f9ea0" stroke="#333333" cx="551.4932" cy="-319.9919" rx="35.5374" ry="22.7556"/>
      <text text-anchor="middle" x="551.4932" y="-322.9919" font-family="Helvetica,sans-Serif" font-size="10.00" fill="#000000">Condition</text>
      <text text-anchor="middle" x="551.4932" y="-310.9919" font-family="Helvetica,sans-Serif" font-size="10.00" fill="#000000">cond</text>
    </g>
    <!-- 13 -->
    <g id="node13" class="node">
      <title>13</title>
      <ellipse fill="#5f9ea0" stroke="#333333" cx="992.4932" cy="-319.9919" rx="32.5" ry="22.7556"/>
      <text text-anchor="middle" x="992.4932" y="-322.9919" font-family="Helvetica,sans-Serif" font-size="10.00" fill="#000000">Cov</text>
      <text text-anchor="middle" x="992.4932" y="-310.9919" font-family="Helvetica,sans-Serif" font-size="10.00" fill="#000000">cov</text>
    </g>
    <!-- 14 -->
    <g id="node14" class="node">
      <title>14</title>
      <ellipse fill="#5f9ea0" stroke="#333333" cx="817.4932" cy="-319.9919" rx="35.2487" ry="22.7556"/>
      <text text-anchor="middle" x="817.4932" y="-322.9919" font-family="Helvetica,sans-Serif" font-size="10.00" fill="#000000">Cont Cov</text>
      <text text-anchor="middle" x="817.4932" y="-310.9919" font-family="Helvetica,sans-Serif" font-size="10.00" fill="#000000">cont</text>
    </g>
  </g>
</svg>
