<?xml version="1.0" encoding="UTF-8" standalone="no"?>
<!DOCTYPE svg PUBLIC "-//W3C//DTD SVG 1.1//EN" "http://www.w3.org/Graphics/SVG/1.1/DTD/svg11.dtd">
<!-- Generated by graphviz version 2.40.1 (20161225.0304)
 -->
<!-- Title: %0 Pages: 1 -->
<svg xmlns="http://www.w3.org/2000/svg" xmlns:xlink="http://www.w3.org/1999/xlink" width="859pt" height="367pt" viewBox="0.00 0.00 859.00 366.62">
  <g id="graph0" class="graph" transform="scale(1 1) rotate(0) translate(4 362.6193)">
    <title>%0</title>
    <polygon fill="#ffffff" stroke="transparent" points="-4,4 -4,-362.6193 855,-362.6193 855,4 -4,4"/>
    <g id="clust1" class="cluster">
      <title>cluster1</title>
      <polygon fill="#ffffff" stroke="#000000" points="8,-264.5645 8,-350.6193 398,-350.6193 398,-264.5645 8,-264.5645"/>
      <text text-anchor="middle" x="349.5638" y="-272.7645" font-family="Times,serif" font-size="14.00" fill="#000000">Cond cond [2]</text>
    </g>
    <g id="clust2" class="cluster">
      <title>cluster2</title>
      <polygon fill="#ffffff" stroke="#000000" points="406,-8 406,-350.6193 843,-350.6193 843,-8 406,-8"/>
      <text text-anchor="middle" x="780.183" y="-16.2" font-family="Times,serif" font-size="14.00" fill="#000000">Observation i [200]</text>
    </g>
    <!-- 5&#45;&gt;3 -->
    <g id="edge1" class="edge">
      <title>5-&gt;3</title>
      <path fill="none" stroke="#333333" stroke-dasharray="5,2" d="M331.218,-298.5137C350.4892,-286.0957 376.5465,-271.5784 402,-264.5645 449.8056,-251.3913 575.8821,-263.3725 625,-256.5645 636.2276,-255.0083 647.9826,-252.7839 659.445,-250.2754"/>
      <polygon fill="#333333" stroke="#333333" points="659.8382,-251.9808 664.3372,-249.1841 659.0761,-248.5648 659.8382,-251.9808"/>
    </g>
    <!-- 6&#45;&gt;4 -->
    <g id="edge2" class="edge">
      <title>6-&gt;4</title>
      <path fill="none" stroke="#333333" stroke-dasharray="5,2" d="M135.2797,-298.6075C153.9273,-286.551 178.8211,-272.3799 203,-264.5645 240.7284,-252.3695 336.3648,-242.8505 411.8918,-236.9054"/>
      <polygon fill="#333333" stroke="#333333" points="412.4454,-238.6176 417.2939,-236.4835 412.1728,-235.1282 412.4454,-238.6176"/>
    </g>
    <!-- 2&#45;&gt;1 -->
    <g id="edge3" class="edge">
      <title>2-&gt;1</title>
      <path fill="none" stroke="#333333" d="M604.4069,-122.479C614.8873,-112.0938 627.4241,-99.671 638.289,-88.9048"/>
      <polygon fill="#333333" stroke="#333333" points="639.5843,-90.085 641.9041,-85.3225 637.1207,-87.5988 639.5843,-90.085"/>
    </g>
    <!-- 3&#45;&gt;2 -->
    <g id="edge4" class="edge">
      <title>3-&gt;2</title>
      <path fill="none" stroke="#333333" d="M690.8495,-205.7345C670.1236,-194.1096 645.3617,-180.221 624.6954,-168.6295"/>
      <polygon fill="#333333" stroke="#333333" points="625.2972,-166.9606 620.0802,-166.0409 623.585,-170.0133 625.2972,-166.9606"/>
    </g>
    <!-- 4&#45;&gt;2 -->
    <g id="edge5" class="edge">
      <title>4-&gt;2</title>
      <path fill="none" stroke="#333333" d="M535.832,-203.4293C543.9031,-193.159 553.1248,-181.4248 561.1935,-171.1577"/>
      <polygon fill="#333333" stroke="#333333" points="562.6268,-172.166 564.3404,-167.1534 559.8749,-170.0033 562.6268,-172.166"/>
    </g>
    <!-- 7&#45;&gt;1 -->
    <g id="edge6" class="edge">
      <title>7-&gt;1</title>
      <path fill="none" stroke="#333333" d="M727.7495,-125.8365C716.5525,-114.875 702.2876,-100.9099 690.0918,-88.9706"/>
      <polygon fill="#333333" stroke="#333333" points="691.1761,-87.5831 686.379,-85.3359 688.7277,-90.0842 691.1761,-87.5831"/>
    </g>
    <!-- 8&#45;&gt;3 -->
    <g id="edge7" class="edge">
      <title>8-&gt;3</title>
      <path fill="none" stroke="#333333" d="M645.9958,-301.9844C661.1508,-289.5773 681.611,-272.8269 698.9894,-258.5995"/>
      <polygon fill="#333333" stroke="#333333" points="700.1156,-259.9392 702.8759,-255.4178 697.8985,-257.231 700.1156,-259.9392"/>
    </g>
    <!-- 8&#45;&gt;4 -->
    <g id="edge8" class="edge">
      <title>8-&gt;4</title>
      <path fill="none" stroke="#333333" d="M602.2042,-301.9844C587.3132,-289.6816 567.2531,-273.1081 550.1271,-258.9588"/>
      <polygon fill="#333333" stroke="#333333" points="550.8104,-257.2533 545.8411,-255.4178 548.5811,-259.9516 550.8104,-257.2533"/>
    </g>
    <!-- 5 -->
    <g id="node1" class="node">
      <title>5</title>
      <ellipse fill="#f0f8ff" stroke="#333333" cx="301" cy="-319.9919" rx="89.3298" ry="22.7556"/>
      <text text-anchor="middle" x="301" y="-322.9919" font-family="Helvetica,sans-Serif" font-size="10.00" fill="#000000">Cond Coefficient A</text>
      <text text-anchor="middle" x="301" y="-310.9919" font-family="Helvetica,sans-Serif" font-size="10.00" fill="#000000">c_cond_a ~ exponential(1)</text>
    </g>
    <!-- 6 -->
    <g id="node2" class="node">
      <title>6</title>
      <ellipse fill="#f0f8ff" stroke="#333333" cx="105" cy="-319.9919" rx="89.3298" ry="22.7556"/>
      <text text-anchor="middle" x="105" y="-322.9919" font-family="Helvetica,sans-Serif" font-size="10.00" fill="#000000">Cond Coefficient B</text>
      <text text-anchor="middle" x="105" y="-310.9919" font-family="Helvetica,sans-Serif" font-size="10.00" fill="#000000">c_cond_b ~ exponential(1)</text>
    </g>
    <!-- 1 -->
    <g id="node3" class="node">
      <title>1</title>
      <ellipse fill="#5f9ea0" stroke="#333333" cx="664" cy="-63.4274" rx="79.1285" ry="22.7556"/>
      <text text-anchor="middle" x="664" y="-66.4274" font-family="Helvetica,sans-Serif" font-size="10.00" fill="#000000">Successes</text>
      <text text-anchor="middle" x="664" y="-54.4274" font-family="Helvetica,sans-Serif" font-size="10.00" fill="#000000">s ~ binomial(trials,prob)</text>
    </g>
    <!-- 2 -->
    <g id="node4" class="node">
      <title>2</title>
      <ellipse fill="#f0f8ff" stroke="#333333" cx="582" cy="-144.6823" rx="114.1164" ry="22.7556"/>
      <text text-anchor="middle" x="582" y="-147.6823" font-family="Helvetica,sans-Serif" font-size="10.00" fill="#000000">Probability</text>
      <text text-anchor="middle" x="582" y="-135.6823" font-family="Helvetica,sans-Serif" font-size="10.00" fill="#000000">prob ~ beta(lin_pred_a,lin_pred_b)</text>
    </g>
    <!-- 3 -->
    <g id="node5" class="node">
      <title>3</title>
      <ellipse fill="#f0f8ff" stroke="#333333" cx="734" cy="-229.9371" rx="96.7696" ry="22.7362"/>
      <ellipse fill="none" stroke="#333333" cx="734" cy="-229.9371" rx="100.7751" ry="26.7554"/>
      <text text-anchor="middle" x="734" y="-232.9371" font-family="Helvetica,sans-Serif" font-size="10.00" fill="#000000">Linear Predictor A</text>
      <text text-anchor="middle" x="734" y="-220.9371" font-family="Helvetica,sans-Serif" font-size="10.00" fill="#000000">lin_pred_a = c_cond_a[cond]</text>
    </g>
    <!-- 4 -->
    <g id="node6" class="node">
      <title>4</title>
      <ellipse fill="#f0f8ff" stroke="#333333" cx="515" cy="-229.9371" rx="96.7696" ry="22.7362"/>
      <ellipse fill="none" stroke="#333333" cx="515" cy="-229.9371" rx="100.7751" ry="26.7554"/>
      <text text-anchor="middle" x="515" y="-232.9371" font-family="Helvetica,sans-Serif" font-size="10.00" fill="#000000">Linear Predictor B</text>
      <text text-anchor="middle" x="515" y="-220.9371" font-family="Helvetica,sans-Serif" font-size="10.00" fill="#000000">lin_pred_b = c_cond_b[cond]</text>
    </g>
    <!-- 7 -->
    <g id="node7" class="node">
      <title>7</title>
      <ellipse fill="#5f9ea0" stroke="#333333" cx="747" cy="-144.6823" rx="32.5" ry="22.7556"/>
      <text text-anchor="middle" x="747" y="-147.6823" font-family="Helvetica,sans-Serif" font-size="10.00" fill="#000000">Trials</text>
      <text text-anchor="middle" x="747" y="-135.6823" font-family="Helvetica,sans-Serif" font-size="10.00" fill="#000000">trials</text>
    </g>
    <!-- 8 -->
    <g id="node8" class="node">
      <title>8</title>
      <ellipse fill="#5f9ea0" stroke="#333333" cx="624" cy="-319.9919" rx="35.5374" ry="22.7556"/>
      <text text-anchor="middle" x="624" y="-322.9919" font-family="Helvetica,sans-Serif" font-size="10.00" fill="#000000">Condition</text>
      <text text-anchor="middle" x="624" y="-310.9919" font-family="Helvetica,sans-Serif" font-size="10.00" fill="#000000">cond</text>
    </g>
  </g>
</svg>
